<?xml version="1.0" encoding="utf-8"?>
<!-- Generator: Adobe Illustrator 17.0.0, SVG Export Plug-In . SVG Version: 6.00 Build 0)  -->
<!DOCTYPE svg PUBLIC "-//W3C//DTD SVG 1.1//EN" "http://www.w3.org/Graphics/SVG/1.1/DTD/svg11.dtd">
<svg version="1.1" id="Layer_1" xmlns="http://www.w3.org/2000/svg" xmlns:xlink="http://www.w3.org/1999/xlink" x="0px" y="0px"
	 width="288px" height="288px" viewBox="0 0 288 288" enable-background="new 0 0 288 288" xml:space="preserve">
<g>
	<path fill="#FFFFFF" d="M144,257H31V36c0-2.761,2.239-5,5-5s5,2.239,5,5v211h103c2.762,0,5,2.238,5,5S146.762,257,144,257z"/>
</g>
<g>
	<path fill="#FFFFFF" d="M252,257c-2.762,0-5-2.238-5-5V41H144c-2.762,0-5-2.239-5-5s2.238-5,5-5h113v221
		C257,254.762,254.762,257,252,257z"/>
</g>
<g>
	<path fill="#FFFFFF" d="M116.998,177.357c-0.421,0-0.847-0.106-1.238-0.33L57.961,144l57.799-33.027
		c1.198-0.685,2.725-0.27,3.411,0.93c0.685,1.199,0.269,2.726-0.931,3.411L68.039,144l50.201,28.687
		c1.199,0.685,1.615,2.212,0.931,3.411C118.709,176.905,117.865,177.357,116.998,177.357z"/>
</g>
<g>
	<g>
		<path fill="#FFFFFF" d="M171.002,177.357c-0.867,0-1.711-0.453-2.173-1.26c-0.685-1.199-0.269-2.726,0.931-3.411L219.961,144
			l-50.201-28.687c-1.199-0.685-1.615-2.212-0.931-3.411c0.687-1.2,2.212-1.615,3.411-0.93L230.039,144l-57.799,33.027
			C171.849,177.251,171.423,177.357,171.002,177.357z"/>
	</g>
</g>
</svg>
